<svg width="1290" height="296" viewBox="0 0 1290 296" fill="none" xmlns="http://www.w3.org/2000/svg">
<path d="M468.5 195H435.5L412.5 153.333H367.333V195H334.167V55H407.667C445.167 55 465 72.5 465 105.167C465 124.667 455.5 138.833 441.167 146.667L468.5 195ZM367.333 82.8333V127.833H405.833C422.667 127.833 432 120.167 432 105.333C432 90.5 422.667 82.8333 405.833 82.8333H367.333ZM549.906 199.667C504.24 199.667 473.073 169 473.073 125C473.073 81 504.24 50.3333 549.906 50.3333C595.74 50.3333 626.906 81 626.906 125C626.906 169 595.74 199.667 549.906 199.667ZM549.906 170.833C574.906 170.833 593.906 152.5 593.906 125C593.906 97.5 574.906 79.1667 549.906 79.1667C525.073 79.1667 505.906 97.5 505.906 125C505.906 152.5 525.073 170.833 549.906 170.833ZM713.969 199.667C668.302 199.667 637.135 169 637.135 125C637.135 81 668.302 50.3333 713.969 50.3333C759.802 50.3333 790.969 81 790.969 125C790.969 169 759.802 199.667 713.969 199.667ZM713.969 170.833C738.969 170.833 757.969 152.5 757.969 125C757.969 97.5 738.969 79.1667 713.969 79.1667C689.135 79.1667 669.969 97.5 669.969 125C669.969 152.5 689.135 170.833 713.969 170.833ZM802.721 195V55H920.388V82.8333H835.888V115.833H915.721V141H835.888V195H802.721ZM934.557 195V55H967.724V195H934.557ZM982.018 195V55H1020.52L1085.52 149.167H1088.68V55H1121.18V195H1083.35L1017.52 100.833H1014.52V195H982.018ZM1280.84 121V195H1260.01L1259.67 174.667C1250.01 189.333 1232.34 199.667 1207.51 199.667C1165.17 199.667 1132.84 169 1132.84 125C1132.84 81 1164.17 50.3333 1210.17 50.3333C1240.51 50.3333 1271.17 64.5 1278.67 99.6667H1245.51C1240.17 87 1227.51 79.1667 1210.67 79.1667C1184.67 79.1667 1165.67 98 1165.67 125C1165.67 151.833 1184.84 170.833 1210.01 170.833C1224.01 170.833 1243.51 164.667 1248.34 143.5H1207.67V121H1280.84Z" fill="white"/>
<path d="M81.3333 199.667C36 199.667 4.66667 169 4.66667 125C4.66667 81 36 50.3333 81.3333 50.3333C112 50.3333 143.5 64 150.333 105.167H118.5C112.5 87.1667 98.6667 79.1667 81.3333 79.1667C56.5 79.1667 37.5 98 37.5 125C37.5 151.833 56.5 170.833 81.3333 170.833C98.6667 170.833 112.5 162.833 118.5 144.667H150.333C143.5 186 112.333 199.667 81.3333 199.667ZM162.245 195V55H204.745L239.411 153.167H241.911L276.578 55H319.078V195H287.245V110.667H284.411L253.578 195H227.745L196.911 110.667H194.078V195H162.245Z" fill="#E04C26"/>
<path d="M708.417 295.333C687.083 295.333 675.833 287.75 675.917 271.333H690.917C691.5 277.917 696.917 282.083 708.417 282.167C719.25 282.167 725.167 278.5 725.167 273C725.167 268.167 721.25 265.75 712.917 264.333L704.25 262.833C691 260.5 677.833 257 677.833 241.75C677.833 228.5 689 220.667 708.583 220.667C726.833 220.667 739.5 227.083 739.667 244.417H724.75C723.667 238.083 718.75 233.833 708.25 233.833C698.75 233.833 693.75 237.083 693.75 242.5C693.75 246.75 697.167 249.417 704.333 250.75L711.917 252.083C725.25 254.5 741.667 256.75 741.667 273.5C741.667 287.417 730.25 295.333 708.417 295.333ZM784.477 295.333C761.643 295.333 746.06 280 746.06 258C746.06 236 761.643 220.667 784.477 220.667C807.393 220.667 822.977 236 822.977 258C822.977 280 807.393 295.333 784.477 295.333ZM784.477 280.917C796.977 280.917 806.477 271.75 806.477 258C806.477 244.25 796.977 235.083 784.477 235.083C772.06 235.083 762.477 244.25 762.477 258C762.477 271.75 772.06 280.917 784.477 280.917ZM828.853 293V223H845.436V279.083H885.77V293H828.853ZM925.103 295.333C903.52 295.333 891.353 285.167 891.353 263.833V223H908.103V263.417C908.103 274.583 913.686 281.333 925.103 281.333C936.52 281.333 942.186 274.583 942.186 263.417V223H958.853V263.833C958.853 285.167 946.686 295.333 925.103 295.333ZM1034.63 223V236.917H1008.38V293H991.712V236.917H965.546V223H1034.63ZM1041.26 293V223H1057.84V293H1041.26ZM1102.15 295.333C1079.32 295.333 1063.74 280 1063.74 258C1063.74 236 1079.32 220.667 1102.15 220.667C1125.07 220.667 1140.65 236 1140.65 258C1140.65 280 1125.07 295.333 1102.15 295.333ZM1102.15 280.917C1114.65 280.917 1124.15 271.75 1124.15 258C1124.15 244.25 1114.65 235.083 1102.15 235.083C1089.74 235.083 1080.15 244.25 1080.15 258C1080.15 271.75 1089.74 280.917 1102.15 280.917ZM1146.53 293V223H1165.78L1198.28 270.083H1199.86V223H1216.11V293H1197.2L1164.28 245.917H1162.78V293H1146.53ZM1254.02 295.333C1232.69 295.333 1221.44 287.75 1221.52 271.333H1236.52C1237.11 277.917 1242.52 282.083 1254.02 282.167C1264.86 282.167 1270.77 278.5 1270.77 273C1270.77 268.167 1266.86 265.75 1258.52 264.333L1249.86 262.833C1236.61 260.5 1223.44 257 1223.44 241.75C1223.44 228.5 1234.61 220.667 1254.19 220.667C1272.44 220.667 1285.11 227.083 1285.27 244.417H1270.36C1269.27 238.083 1264.36 233.833 1253.86 233.833C1244.36 233.833 1239.36 237.083 1239.36 242.5C1239.36 246.75 1242.77 249.417 1249.94 250.75L1257.52 252.083C1270.86 254.5 1287.27 256.75 1287.27 273.5C1287.27 287.417 1275.86 295.333 1254.02 295.333Z" fill="white"/>
</svg>
